<?xml version="1.0" encoding="utf-8"?>
<!-- Svg Vector Icons : http://www.onlinewebfonts.com/icon -->
<!DOCTYPE svg PUBLIC "-//W3C//DTD SVG 1.1//EN" "http://www.w3.org/Graphics/SVG/1.1/DTD/svg11.dtd">
<svg version="1.1" xmlns="http://www.w3.org/2000/svg" xmlns:xlink="http://www.w3.org/1999/xlink" x="0px" y="0px" viewBox="0 0 1000 1000" enable-background="new 0 0 1000 1000" xml:space="preserve">
<metadata> Svg Vector Icons : http://www.onlinewebfonts.com/icon </metadata>
<g><g><g><path d="M544,47.6c0-20.8-19.7-37.6-44-37.6c-24.3,0-43.9,16.8-43.9,37.6c0,20.8,0,37.6,0,37.6H544V47.6L544,47.6z"/><path d="M456.1,253.7c0,28.2-12.4,70.3-27.7,94.1l-25.8,40c-15.3,23.7-27.7,65.9-27.7,94.1v457.1c0,28.2,22.9,51.1,51.1,51.1h70.1h7.6h70.1c28.2,0,51.1-22.9,51.1-51.1V481.8c0-28.2-12.4-70.3-27.7-94.1l-25.8-40c-15.3-23.7-27.7-65.8-27.7-94.1V97.3H456L456.1,253.7L456.1,253.7z M590.2,518.6V793H409.8V518.6H590.2z"/></g></g><g></g><g></g><g></g><g></g><g></g><g></g><g></g><g></g><g></g><g></g><g></g><g></g><g></g><g></g><g></g></g>
</svg>